<?xml version="1.0" standalone="no"?>
<!DOCTYPE svg PUBLIC "-//W3C//DTD SVG 20010904//EN"
 "http://www.w3.org/TR/2001/REC-SVG-20010904/DTD/svg10.dtd">
<svg version="1.0" xmlns="http://www.w3.org/2000/svg"
 width="599.000000pt" height="399.000000pt" viewBox="0 0 599.000000 399.000000"
 preserveAspectRatio="xMidYMid meet">

<g transform="translate(0.000000,399.000000) scale(0.100000,-0.100000)"
fill="#000000" stroke="none">
<path d="M2054 3275 c-110 -55 -200 -204 -220 -362 l-7 -53 342 0 341 0 -2
218 -3 217 -200 3 c-197 2 -201 2 -251 -23z"/>
<path d="M2690 3080 l0 -220 335 0 335 0 0 220 0 220 -335 0 -335 0 0 -220z"/>
<path d="M3540 3080 l0 -220 340 0 340 0 0 26 c0 91 -68 246 -142 324 -80 84
-100 90 -335 90 l-203 0 0 -220z"/>
<path d="M1830 2445 l0 -225 338 2 337 3 3 223 2 222 -340 0 -340 0 0 -225z"/>
<path d="M3540 2445 l0 -225 338 2 337 3 3 223 2 222 -340 0 -340 0 0 -225z"/>
<path d="M1834 1973 c9 -79 51 -198 81 -229 5 -6 19 -23 30 -38 30 -41 44 -55
86 -82 38 -23 43 -24 259 -24 l220 0 0 215 0 215 -341 0 -342 0 7 -57z"/>
<path d="M2690 1815 l0 -215 335 0 335 0 0 215 0 215 -335 0 -335 0 0 -215z"/>
<path d="M3540 1815 l0 -215 221 0 220 0 42 29 c68 46 121 114 152 191 22 56
44 146 45 183 l0 27 -340 0 -340 0 0 -215z"/>
<path d="M1400 1060 l0 -190 45 0 44 0 3 73 3 72 138 3 137 3 0 39 0 40 -140
0 -140 0 0 30 0 30 165 0 165 0 0 45 0 45 -210 0 -210 0 0 -190z"/>
<path d="M1897 1238 c-15 -12 -37 -58 -37 -79 0 -5 34 -9 75 -9 l75 0 0 50 0
50 -48 0 c-27 0 -56 -6 -65 -12z"/>
<path d="M2060 1200 l0 -50 70 0 70 0 0 50 0 50 -70 0 -70 0 0 -50z"/>
<path d="M2250 1200 l0 -50 75 0 c78 0 81 2 66 43 -17 43 -39 57 -92 57 l-49
0 0 -50z"/>
<path d="M2470 1060 l0 -190 45 0 44 0 3 73 3 72 95 3 c142 4 140 5 140 -78
l0 -70 45 0 45 0 0 73 c0 43 -5 78 -12 85 -9 9 -9 15 0 24 18 18 15 129 -3
155 -24 34 -76 43 -247 43 l-158 0 0 -190z m328 73 l-3 -28 -117 -3 -118 -3 0
31 0 30 121 0 120 0 -3 -27z"/>
<path d="M2940 1205 l0 -45 45 0 45 0 0 -145 0 -145 45 0 45 0 0 145 0 145 85
0 85 0 0 45 0 45 -175 0 -175 0 0 -45z"/>
<path d="M3330 1060 l0 -190 50 0 50 0 0 190 0 190 -50 0 -50 0 0 -190z"/>
<path d="M3500 1060 l0 -190 45 0 45 0 0 145 0 146 118 -3 117 -3 3 -142 3
-143 44 0 45 0 0 145 c0 228 -8 235 -260 235 l-160 0 0 -190z"/>
<path d="M3990 1060 l0 -190 185 0 185 0 0 40 0 40 -140 0 -140 0 0 35 0 35
100 0 100 0 0 40 0 40 -100 0 -100 0 0 30 0 30 140 0 140 0 0 45 0 45 -185 0
-185 0 0 -190z"/>
<path d="M4410 1205 l0 -45 40 0 40 0 0 -145 0 -145 50 0 50 0 0 145 0 145 85
0 85 0 0 45 0 45 -175 0 -175 0 0 -45z"/>
<path d="M1860 1060 l0 -50 75 0 75 0 0 50 0 50 -75 0 -75 0 0 -50z"/>
<path d="M2250 1060 l0 -50 75 0 75 0 0 50 0 50 -75 0 -75 0 0 -50z"/>
<path d="M1860 948 c0 -7 9 -28 20 -45 18 -31 23 -33 75 -33 l55 0 0 45 0 45
-75 0 c-53 0 -75 -4 -75 -12z"/>
<path d="M2060 915 l0 -45 70 0 70 0 0 45 0 45 -70 0 -70 0 0 -45z"/>
<path d="M2250 915 l0 -45 55 0 c52 0 57 2 75 33 32 53 28 57 -55 57 l-75 0 0
-45z"/>
<path d="M4728 933 c7 -3 16 -2 19 1 4 3 -2 6 -13 5 -11 0 -14 -3 -6 -6z"/>
<path d="M4695 919 c-4 -6 -5 -12 -2 -15 2 -3 7 2 10 11 7 17 1 20 -8 4z"/>
<path d="M4735 911 l20 -8 -20 -5 c-16 -5 -17 -6 -2 -7 16 -1 22 -13 18 -35
-1 -5 5 -4 13 4 9 7 16 22 15 34 -1 19 -2 18 -9 -4 -7 -23 -10 -20 -14 12 0 7
-10 14 -21 15 l-20 3 20 -9z"/>
</g>
</svg>
